<svg xmlns="http://www.w3.org/2000/svg" width="30" height="34" viewBox="0 0 30 34" fill="none"><path fill-rule="evenodd" clip-rule="evenodd" d="M23.9351 22.3047C24.1936 22.3047 24.4033 22.5121 24.4033 22.7678C24.4033 23.0235 24.1936 23.2309 23.9351 23.2309H21.3399C21.0814 23.2309 20.8717 23.0235 20.8717 22.7678C20.8717 22.5121 21.0814 22.3047 21.3399 22.3047H23.9351ZM23.9351 25.307C24.1936 25.307 24.4033 25.5145 24.4033 25.7701C24.4033 26.0258 24.1936 26.2333 23.9351 26.2333H20.7012C20.4427 26.2333 20.2331 26.0258 20.2331 25.7701C20.2331 25.5145 20.4427 25.307 20.7012 25.307H23.9351ZM5.95146 23.2309C5.69297 23.2309 5.48329 23.0235 5.48329 22.7678C5.48329 22.5121 5.69297 22.3047 5.95146 22.3047H8.54668C8.80517 22.3047 9.01485 22.5121 9.01485 22.7678C9.01485 23.0235 8.80517 23.2309 8.54668 23.2309H5.95146ZM5.95146 26.2333C5.69297 26.2333 5.48329 26.0258 5.48329 25.7701C5.48329 25.5145 5.69297 25.307 5.95146 25.307H9.18534C9.44383 25.307 9.65351 25.5145 9.65351 25.7701C9.65351 26.0258 9.44383 26.2333 9.18534 26.2333H5.95146ZM19.1702 17.4179C19.5765 17.6205 19.8405 18.0592 19.9677 18.5801C20.0268 18.8228 20.0564 19.0799 20.0564 19.3315C20.0564 19.5831 20.0268 19.8402 19.9677 20.083C19.7917 20.8031 19.3545 21.3662 18.6416 21.3662H18.4222L17.864 22.8664C17.7025 23.3009 17.4887 23.6464 17.2364 23.8892C16.9442 24.17 16.6053 24.3176 16.2333 24.3176H15.4675V29.475C15.4826 29.4634 15.4977 29.4526 15.5129 29.4417C15.979 29.1051 16.5296 28.931 17.037 28.931H26.4306V16.865V15.6668H20.3506C19.9821 16.2727 19.5717 16.8535 19.1702 17.4179ZM17.4261 21.3655L16.9861 22.5474C16.8727 22.8521 16.7366 23.0806 16.5853 23.2268C16.4733 23.3349 16.3543 23.3914 16.2333 23.3914H14.9993H14.0747C13.9537 23.3914 13.8347 23.3349 13.7227 23.2268C13.5714 23.0813 13.4353 22.8521 13.3219 22.5474L12.8819 21.3655H17.4261ZM11.8857 21.3655H11.6664C10.9542 21.3655 10.5163 20.8031 10.3403 20.0823C10.2812 19.8395 10.2516 19.5825 10.2516 19.3308C10.2516 19.0792 10.2812 18.8222 10.3403 18.5794C10.4695 18.051 10.739 17.6076 11.155 17.4084C10.7521 16.8453 10.3396 16.2673 9.96975 15.6661H3.56799V16.8643V28.9289H12.9616C13.469 28.9289 14.0197 29.1037 14.4858 29.4396C14.5009 29.4505 14.516 29.4621 14.5311 29.473V24.3169H14.0747C13.7027 24.3169 13.3638 24.1693 13.0716 23.8885C12.8193 23.6457 12.6055 23.3002 12.444 22.8657L11.8857 21.3655ZM18.6416 18.2231C18.8375 18.2231 18.9819 18.4747 19.0602 18.797C19.1001 18.9595 19.12 19.1425 19.12 19.3308C19.12 19.5192 19.1001 19.7021 19.0602 19.8647C18.9819 20.187 18.8375 20.4386 18.6416 20.4386H18.0971H12.2116H12.2089H11.6671C11.4712 20.4386 11.3268 20.187 11.2485 19.8647C11.2086 19.7021 11.1886 19.5192 11.1886 19.3308C11.1886 19.1425 11.2086 18.9595 11.2485 18.797C11.3268 18.4747 11.4712 18.2231 11.6671 18.2231H18.6416ZM14.5332 0.461068C14.5332 0.206052 14.7422 0 14.9993 0C15.2564 0 15.4654 0.206732 15.4654 0.461068V2.77865C15.4654 3.03366 15.2564 3.23971 14.9993 3.23971C14.7422 3.23971 14.5332 3.03298 14.5332 2.77865V0.461068ZM4.0726 11.7307C3.81479 11.7307 3.60649 11.524 3.60649 11.2696C3.60649 11.0146 3.81548 10.8086 4.0726 10.8086H6.41551C6.67331 10.8086 6.88162 11.0153 6.88162 11.2696C6.88162 11.524 6.67263 11.7307 6.41551 11.7307H4.0726ZM6.94211 3.95376C6.75925 3.77287 6.75925 3.47977 6.94211 3.29888C7.12498 3.11799 7.42128 3.11799 7.60415 3.29888L9.26096 4.93778C9.44383 5.11867 9.44383 5.41177 9.26096 5.59266C9.0781 5.77355 8.7818 5.77355 8.59893 5.59266L6.94211 3.95376ZM25.926 10.8065C26.1845 10.8065 26.3942 11.0139 26.3942 11.2696C26.3942 11.5253 26.1845 11.7327 25.926 11.7327H23.5831C23.3246 11.7327 23.1149 11.5253 23.1149 11.2696C23.1149 11.0139 23.3246 10.8065 23.5831 10.8065H25.926ZM22.3945 3.29888C22.5773 3.11799 22.8736 3.11799 23.0565 3.29888C23.2394 3.47977 23.2394 3.77287 23.0565 3.95376L21.3997 5.59266C21.2168 5.77355 20.9205 5.77355 20.7377 5.59266C20.5548 5.41177 20.5548 5.11867 20.7377 4.93778L22.3945 3.29888ZM15.154 5.42333C13.37 5.42333 11.7544 6.13873 10.5857 7.29548C9.41634 8.45223 8.69311 10.0496 8.69311 11.8143C8.69311 12.8664 8.99972 13.8327 9.45208 14.7406H3.09982C2.84133 14.7406 2.63165 14.948 2.63165 15.2037V16.4019H0.46817C0.20968 16.4019 0 16.6093 0 16.865V31.9966C0 32.2523 0.20968 32.4597 0.46817 32.4597H10.8105C10.9384 32.4597 11.0505 32.7072 11.1632 32.9548C11.4004 33.477 11.6376 34 12.3677 34H17.6323C18.3624 34 18.5996 33.4777 18.8368 32.9548C18.9495 32.7072 19.0616 32.4597 19.1895 32.4597H29.5318C29.7903 32.4597 30 32.2523 30 31.9966V16.865C30 16.6093 29.7903 16.4019 29.5318 16.4019H27.3677V15.2037C27.3677 14.948 27.158 14.7406 26.8995 14.7406H20.8628C21.3117 13.83 21.6156 12.8616 21.6156 11.8143C21.6156 10.0496 20.8923 8.45155 19.7229 7.29548C18.5536 6.13873 16.938 5.42333 15.154 5.42333ZM19.0609 7.95036C20.0605 8.93914 20.6792 10.3053 20.6792 11.8143C20.6792 13.6926 19.4651 15.3982 18.3521 16.9623C18.2799 17.0636 18.2084 17.1642 18.1149 17.2968H12.2164C12.1319 17.1785 12.0301 17.0357 11.9277 16.8922C11.4911 16.2815 11.0408 15.6525 10.6565 14.9997C10.6469 14.9799 10.6359 14.9616 10.6235 14.9432C10.0509 13.9592 9.63014 12.9221 9.63014 11.8137C9.63014 10.3047 10.2482 8.93846 11.2485 7.94968C12.248 6.9609 13.6292 6.34886 15.1547 6.34886C16.6802 6.34886 18.0606 6.96158 19.0609 7.95036ZM27.3663 17.3281V29.3927C27.3663 29.6484 27.1566 29.8558 26.8981 29.8558H17.037C16.7146 29.8558 16.3626 29.9687 16.0615 30.1857C15.8463 30.3407 15.6586 30.5502 15.528 30.8099C15.3815 31.101 15.2083 31.2363 15 31.2397C14.8467 31.2418 14.6714 31.2343 14.4913 30.8514C14.36 30.5726 14.1633 30.3495 13.9372 30.1857C13.6361 29.9687 13.2841 29.8558 12.9616 29.8558H3.09982C2.84133 29.8558 2.63165 29.6484 2.63165 29.3927V17.3281H0.93634V31.5335H10.8105C11.5406 31.5335 11.7778 32.0558 12.015 32.5787C12.1277 32.8262 12.2398 33.0738 12.3677 33.0738H17.6323C17.7602 33.0738 17.8723 32.8262 17.985 32.5787C18.2222 32.0564 18.4594 31.5335 19.1895 31.5335H29.0637V17.3281H27.3663Z" fill="white"></path></svg>