<svg xmlns="http://www.w3.org/2000/svg" width="32" height="34" viewBox="0 0 32 34" fill="none"><path d="M29.9212 12.4125H27.8949V12.1849C27.8949 11.6185 27.434 11.1577 26.8676 11.1577H22.8711C22.5957 11.1577 22.3724 11.381 22.3724 11.6565C22.3724 11.932 22.5957 12.1552 22.8711 12.1552H26.8676C26.884 12.1552 26.8974 12.1685 26.8974 12.1849V18.2662C26.8974 18.5417 27.1207 18.7649 27.3961 18.7649C27.6716 18.7649 27.8949 18.5417 27.8949 18.2662V13.41H29.9212C29.9886 13.41 30.0435 13.4649 30.0435 13.5323V30.9326C30.0435 32.0739 29.115 33.0025 27.9736 33.0025H3.30884C2.1675 33.0025 1.23896 32.0739 1.23896 30.9326V13.5323C1.23896 13.4649 1.29382 13.41 1.36125 13.41H3.45408V30.4682C3.45408 31.1715 4.02624 31.7437 4.72962 31.7437H26.6193C27.3226 31.7437 27.8948 31.1715 27.8948 30.4682V20.3935C27.8948 20.1179 27.6715 19.8947 27.3961 19.8947C27.1206 19.8947 26.8973 20.1179 26.8973 20.3935V27.5709H18.8279C17.7828 27.5709 16.8396 28.0128 16.1732 28.7188V22.2673C16.1732 21.9918 15.9499 21.7685 15.6745 21.7685C15.399 21.7685 15.1757 21.9918 15.1757 22.2673V28.7189C14.5094 28.0129 13.5661 27.5709 12.521 27.5709H10.2547C9.97927 27.5709 9.75596 27.7942 9.75596 28.0697C9.75596 28.3452 9.97927 28.5684 10.2547 28.5684H12.521C13.822 28.5684 14.9066 29.5094 15.132 30.7462H4.72962C4.57627 30.7462 4.45158 30.6215 4.45158 30.4682V28.5684H8.12738C8.40282 28.5684 8.62613 28.3452 8.62613 28.0697C8.62613 27.7942 8.40282 27.5709 8.12738 27.5709H4.45158V12.1849C4.45158 12.1685 4.46495 12.1552 4.48137 12.1552H8.47783C8.75327 12.1552 8.97658 11.932 8.97658 11.6565C8.97658 11.381 8.75327 11.1577 8.47783 11.1577H4.48137C3.91492 11.1577 3.45408 11.6186 3.45408 12.1849V12.4125H1.36125C0.743797 12.4125 0.241455 12.9148 0.241455 13.5323V30.9326C0.241455 32.624 1.61748 34 3.30884 34H27.9735C29.6648 34 31.0409 32.624 31.0409 30.9326V13.5323C31.0409 12.9148 30.5387 12.4125 29.9212 12.4125ZM18.8279 28.5684H26.8973V30.4682C26.8973 30.6215 26.7726 30.7462 26.6193 30.7462H16.217C16.4424 29.5093 17.527 28.5684 18.8279 28.5684Z" fill="white"></path><path d="M9.02477 6.99788C9.29855 7.02328 9.54227 6.82238 9.56814 6.54814C9.71078 5.03566 10.4092 3.6353 11.5349 2.60508C12.6676 1.56847 14.1377 0.997502 15.6745 0.997502C19.0569 0.997502 21.8087 3.74928 21.8087 7.13161C21.8087 8.40436 21.4224 9.6249 20.6916 10.6615C20.6875 10.6674 20.6835 10.6733 20.6796 10.6793L17.488 15.6481C17.4363 15.7285 17.4088 15.822 17.4088 15.9177V16.5638C17.4088 16.6949 17.3022 16.8016 17.171 16.8016H17.1385L17.4562 11.4101H18.0244C18.8374 11.4101 19.4988 10.7487 19.4988 9.93572V9.87521C19.4988 9.06224 18.8374 8.40083 18.0244 8.40083C17.2449 8.40083 16.5984 9.01037 16.5525 9.78849L16.5157 10.4126H14.7667L14.7299 9.78849C14.6841 9.01037 14.0375 8.40083 13.2581 8.40083C12.4451 8.40083 11.7837 9.06224 11.7837 9.87521V9.93572C11.7837 10.7487 12.4451 11.4101 13.2581 11.4101H13.8263L14.1438 16.7981C14.029 16.7814 13.9402 16.6832 13.9402 16.5638V15.9177C13.9402 15.822 13.9127 15.7285 13.8611 15.6481L10.6695 10.6793C10.6656 10.6733 10.6616 10.6674 10.6575 10.6615C10.1986 10.0105 9.87537 9.28701 9.69709 8.51115C9.63531 8.24269 9.36731 8.07518 9.09925 8.13683C8.83079 8.1986 8.66321 8.4662 8.72492 8.73466C8.9316 9.63368 9.3054 10.4722 9.83594 11.2272L12.9428 16.0639V16.5637C12.9428 17.0673 13.2461 17.5008 13.6794 17.6929V18.5363C13.6794 19.4238 14.4014 20.1458 15.2889 20.1458H16.0606C16.948 20.1458 17.6701 19.4238 17.6701 18.5363V17.6929C18.1032 17.5008 18.4066 17.0673 18.4066 16.5637V16.0639L21.5134 11.2272C22.3593 10.0235 22.8064 8.60745 22.8064 7.13154C22.8061 3.19919 19.6069 0 15.6745 0C13.8878 0 12.1785 0.663871 10.8614 1.86925C9.55291 3.06692 8.74095 4.69524 8.57509 6.4545C8.54916 6.72882 8.75052 6.97208 9.02477 6.99788ZM17.5483 9.84714C17.5631 9.59544 17.7723 9.39827 18.0244 9.39827C18.2874 9.39827 18.5013 9.6122 18.5013 9.87514V9.93565C18.5013 10.1986 18.2874 10.4125 18.0244 10.4125H17.515L17.5483 9.84714ZM13.2581 10.4125C12.9951 10.4125 12.7812 10.1986 12.7812 9.93565V9.87514C12.7812 9.6122 12.9951 9.39827 13.2581 9.39827C13.5103 9.39827 13.7193 9.59544 13.7342 9.84714L13.7675 10.4125H13.2581ZM16.457 11.41L16.1393 16.8015H15.1432L14.8256 11.41H16.457ZM16.6723 18.5364C16.6723 18.8738 16.3978 19.1484 16.0603 19.1484H15.2886C14.9512 19.1484 14.6766 18.8738 14.6766 18.5364V17.799H16.6722V18.5364H16.6723Z" fill="white"></path><path d="M24.4108 3.78741C24.5277 3.78741 24.645 3.74658 24.7397 3.66345L25.8279 2.70798C26.0349 2.5263 26.0553 2.21109 25.8736 2.00414C25.692 1.79719 25.3768 1.77671 25.1698 1.95839L24.0816 2.91386C23.8746 3.09554 23.8542 3.41075 24.0358 3.6177C24.1345 3.73002 24.2723 3.78741 24.4108 3.78741Z" fill="white"></path><path d="M24.0817 6.79497L25.1699 7.75051C25.2646 7.8337 25.3819 7.87447 25.4988 7.87447C25.6373 7.87447 25.7752 7.81708 25.8738 7.70476C26.0555 7.49781 26.0351 7.18266 25.8281 7.00092L24.7399 6.04538C24.5329 5.86357 24.2178 5.88412 24.0361 6.09113C23.8543 6.29808 23.8747 6.61316 24.0817 6.79497Z" fill="white"></path><path d="M5.52088 2.70805L6.60909 3.66353C6.70379 3.74672 6.82109 3.78749 6.93794 3.78749C7.07645 3.78749 7.21431 3.7301 7.31293 3.61778C7.49467 3.41083 7.47419 3.09562 7.26718 2.91394L6.17897 1.95847C5.97202 1.77665 5.65681 1.7972 5.47513 2.00422C5.29339 2.21117 5.31387 2.52631 5.52088 2.70805Z" fill="white"></path><path d="M5.85034 7.87488C5.96718 7.87488 6.08449 7.83405 6.17925 7.75092L7.26746 6.79538C7.47441 6.61364 7.49489 6.29849 7.31314 6.09154C7.13147 5.88459 6.81632 5.86411 6.60931 6.04579L5.5211 7.00133C5.31415 7.18308 5.29367 7.49822 5.47541 7.70517C5.57397 7.81749 5.71175 7.87488 5.85034 7.87488Z" fill="white"></path><path d="M11.2618 17.3C11.2618 17.0245 11.0384 16.8013 10.763 16.8013H5.85004C5.5746 16.8013 5.35129 17.0245 5.35129 17.3C5.35129 17.5755 5.5746 17.7988 5.85004 17.7988H10.763C11.0384 17.7988 11.2618 17.5755 11.2618 17.3Z" fill="white"></path><path d="M12.2824 19.3384H6.75101C6.47557 19.3384 6.25226 19.5616 6.25226 19.8371C6.25226 20.1126 6.47557 20.3359 6.75101 20.3359H12.2824C12.5579 20.3359 12.7812 20.1126 12.7812 19.8371C12.7812 19.5616 12.5579 19.3384 12.2824 19.3384Z" fill="white"></path><path d="M12.2824 21.7686H6.75101C6.47557 21.7686 6.25226 21.9918 6.25226 22.2673C6.25226 22.5428 6.47557 22.7661 6.75101 22.7661H12.2824C12.5579 22.7661 12.7812 22.5428 12.7812 22.2673C12.7812 21.9918 12.5579 21.7686 12.2824 21.7686Z" fill="white"></path><path d="M12.2824 24.1987H6.75101C6.47557 24.1987 6.25226 24.422 6.25226 24.6975C6.25226 24.973 6.47557 25.1962 6.75101 25.1962H12.2824C12.5579 25.1962 12.7812 24.973 12.7812 24.6975C12.7812 24.422 12.5579 24.1987 12.2824 24.1987Z" fill="white"></path><path d="M25.9977 17.3C25.9977 17.0245 25.7744 16.8013 25.499 16.8013H20.586C20.3106 16.8013 20.0873 17.0245 20.0873 17.3C20.0873 17.5755 20.3106 17.7988 20.586 17.7988H25.499C25.7744 17.7988 25.9977 17.5755 25.9977 17.3Z" fill="white"></path><path d="M24.598 19.3384H19.0666C18.7911 19.3384 18.5678 19.5616 18.5678 19.8371C18.5678 20.1126 18.7911 20.3359 19.0666 20.3359H24.598C24.8734 20.3359 25.0968 20.1126 25.0968 19.8371C25.0968 19.5616 24.8734 19.3384 24.598 19.3384Z" fill="white"></path><path d="M24.598 21.7686H19.0666C18.7911 21.7686 18.5678 21.9918 18.5678 22.2673C18.5678 22.5428 18.7911 22.7661 19.0666 22.7661H24.598C24.8734 22.7661 25.0968 22.5428 25.0968 22.2673C25.0968 21.9918 24.8734 21.7686 24.598 21.7686Z" fill="white"></path><path d="M24.598 24.1987H19.0666C18.7911 24.1987 18.5678 24.422 18.5678 24.6975C18.5678 24.973 18.7911 25.1962 19.0666 25.1962H24.598C24.8734 25.1962 25.0968 24.973 25.0968 24.6975C25.0968 24.422 24.8734 24.1987 24.598 24.1987Z" fill="white"></path></svg>