<svg xmlns="http://www.w3.org/2000/svg" width="35" height="35" viewBox="0 0 35 35" fill="none"><path d="M28.3635 30.4842L27.0567 26.5631C26.6 25.1942 25.4348 24.1837 24.0145 23.9251L20.2418 23.2387V22.9463C20.8984 22.5652 21.4696 22.0554 21.9246 21.452H23.0644C23.9981 21.452 24.758 20.6921 24.758 19.7584V12.9842C24.758 8.93777 21.4657 5.64551 17.4192 5.64551C13.3728 5.64551 10.0805 8.93777 10.0805 12.9842V16.9358C10.0805 18.0242 10.8545 18.9348 11.8808 19.1471C12.1975 20.7695 13.2113 22.1424 14.5967 22.9463V23.2387L10.8234 23.9251C9.40366 24.1837 8.23794 25.1942 7.78181 26.5631L7.556 27.2411L5.63326 25.3183C5.41309 25.0982 5.41309 24.7397 5.63326 24.5196L7.8631 22.2903L3.67777 18.105L1.15777 20.625C0.411476 21.3713 0.000508308 22.3637 0.000508308 23.4193C0.000508308 24.475 0.411476 25.4668 1.15777 26.2131L8.78721 33.8426C9.5335 34.5888 10.5259 35.0004 11.5816 35.0004C12.6372 35.0004 13.6291 34.5888 14.3579 33.8595L17.1076 31.34L16.2501 30.4842H28.3635ZM23.6289 19.7584C23.6289 20.07 23.3755 20.3229 23.0644 20.3229H22.5896C22.7534 19.9498 22.8775 19.5563 22.9577 19.1471C23.1993 19.0968 23.4217 19.0008 23.6289 18.88V19.7584ZM23.0644 17.9079V15.9637C23.4003 16.1596 23.6289 16.5198 23.6289 16.9358C23.6289 17.3519 23.4003 17.7121 23.0644 17.9079ZM11.7741 17.9079C11.4382 17.7121 11.2096 17.3519 11.2096 16.9358C11.2096 16.5198 11.4382 16.1596 11.7741 15.9637V17.9079ZM11.7741 14.1133V14.7579C11.5731 14.8104 11.3846 14.8895 11.2096 14.9916V12.9842C11.2096 9.56043 13.9954 6.77454 17.4192 6.77454C20.843 6.77454 23.6289 9.56043 23.6289 12.9842V14.9916C23.4539 14.8895 23.2654 14.8099 23.0644 14.7579V14.1133H22.4999C20.8306 14.1133 19.2613 13.4629 18.0803 12.2825L17.4192 11.6215L16.7582 12.2825C15.5772 13.4629 14.0079 14.1133 12.3386 14.1133H11.7741ZM12.9031 18.0649V15.2208C14.5983 15.0933 16.179 14.3938 17.4192 13.2145C18.6595 14.3938 20.2401 15.0938 21.9354 15.2208V18.0649C21.9354 18.8879 21.7107 19.6579 21.3246 20.3229H17.4192V21.452H20.3965C19.6005 22.1525 18.5601 22.581 17.4192 22.581C14.9292 22.581 12.9031 20.555 12.9031 18.0649ZM19.1128 23.4498V23.4763L17.4192 25.1699L15.7257 23.4763V23.4498C16.2608 23.618 16.8293 23.71 17.4192 23.71C18.0092 23.71 18.5776 23.618 19.1128 23.4498ZM8.85213 26.9199C9.17786 25.9421 10.0105 25.2201 11.025 25.035L14.9709 24.318L17.4192 26.7663L19.867 24.3186L23.8124 25.0355C24.8268 25.2207 25.6595 25.9421 25.9852 26.9205L26.7976 29.3552H15.1211L12.9223 27.1564L10.4791 29.3665C10.2662 29.5805 9.89423 29.5805 9.68084 29.3665L8.44794 28.1336L8.85213 26.9199ZM3.67721 19.7014L6.26608 22.2903L5.65301 22.9033L3.06414 20.3145L3.67721 19.7014ZM13.576 33.0455C13.0431 33.5772 12.3341 33.8713 11.5804 33.8713C10.8268 33.8713 10.1178 33.5772 9.58431 33.0443L1.95487 25.4154C1.42196 24.8825 1.12841 24.1735 1.12841 23.4199C1.12841 22.6657 1.42196 21.9567 1.95487 21.4238L2.26535 21.1133L4.85422 23.7021L4.8339 23.7225C4.17398 24.3829 4.17398 25.4572 4.8339 26.1177L8.88205 30.1659C9.20213 30.4854 9.62721 30.6621 10.08 30.6621C10.5327 30.6621 10.9578 30.4859 11.257 30.1856L11.2993 30.1478L13.9 32.7485L13.576 33.0455ZM14.7333 31.9842L12.1382 29.3891L12.8839 28.715L15.4745 31.3056L14.7333 31.9842Z" fill="white"></path><path d="M33.2258 0H25.3225C24.3888 0 23.629 0.759839 23.629 1.69355V6.20968C23.629 7.14339 24.3888 7.90323 25.3225 7.90323H26.8303L26.2466 11.3078L31.6942 7.90323H33.2258C34.1595 7.90323 34.9193 7.14339 34.9193 6.20968V1.69355C34.9193 0.759839 34.1595 0 33.2258 0ZM33.7903 6.20968C33.7903 6.52073 33.5368 6.7742 33.2258 6.7742H31.3702L27.7849 9.01477L28.1694 6.7742H25.3225C25.0115 6.7742 24.758 6.52073 24.758 6.20968V1.69355C24.758 1.3825 25.0115 1.12903 25.3225 1.12903H33.2258C33.5368 1.12903 33.7903 1.3825 33.7903 1.69355V6.20968Z" fill="white"></path><path d="M32.6613 2.25781H25.8871V3.38685H32.6613V2.25781Z" fill="white"></path><path d="M30.4032 4.51611H25.8871V5.64515H30.4032V4.51611Z" fill="white"></path><path d="M32.6613 4.51611H31.5322V5.64515H32.6613V4.51611Z" fill="white"></path><path d="M17.4193 1.69336C10.0433 1.69336 3.68968 6.79546 2.03791 13.9123L0.968146 12.129L0 12.7099L1.98428 16.0163L5.29065 14.032L4.70976 13.0639L3.17992 13.9818C4.77976 7.47119 10.6344 2.82239 17.4193 2.82239C18.9023 2.82239 20.3655 3.04255 21.7683 3.47723L22.1025 2.39901C20.5913 1.93046 19.0157 1.69336 17.4193 1.69336Z" fill="white"></path><path d="M34.6449 12.4994L31.3386 10.5151L29.3548 13.8221L30.323 14.403L31.3109 12.7563C31.8308 14.2776 32.0967 15.869 32.0967 17.4999C32.0967 20.8571 30.9338 24.1392 28.8231 26.741L29.6998 27.4523C31.9736 24.6501 33.2257 21.1151 33.2257 17.4999C33.2257 15.773 32.9474 14.0868 32.4049 12.4723L34.064 13.4676L34.6449 12.4994Z" fill="white"></path></svg>