<svg xmlns="http://www.w3.org/2000/svg" width="31" height="31" viewBox="0 0 31 31" fill="none"><g clip-path="url(#clip0_87_1147)"><path d="M30.5459 26.2538H29.7424V9.93971C29.7424 8.74482 28.7701 7.77274 27.5749 7.77274H26.5082C26.6248 7.52874 26.6891 7.25809 26.6891 6.97685C26.6891 6.29207 26.3133 5.66747 25.7083 5.34675L19.7704 2.20134C19.5488 2.08388 19.2739 2.1684 19.1566 2.39006C19.0392 2.61166 19.1237 2.88649 19.3453 3.00389L25.283 6.14924C25.5948 6.31447 25.7809 6.62386 25.7809 6.97685C25.7809 7.32984 25.5948 7.63917 25.2832 7.80435L19.5111 10.8621L15.8415 6.67745C15.6761 6.48884 15.3892 6.47008 15.2007 6.63543C15.0121 6.80078 14.9933 7.08771 15.1586 7.27626L18.6863 11.2991L16.5023 12.456C15.8747 12.788 15.1255 12.788 14.4981 12.4562L5.71696 7.80447C5.40526 7.63924 5.21908 7.32984 5.21908 6.97691C5.21908 6.62399 5.4052 6.31459 5.71684 6.14936L14.4978 1.49766C15.1253 1.16562 15.8746 1.16562 16.5019 1.49754L17.7589 2.16356C17.9805 2.28102 18.2554 2.19656 18.3728 1.97495C18.4902 1.75335 18.4057 1.47847 18.1842 1.36107L16.927 0.694932C16.0334 0.222122 14.9665 0.222122 14.0728 0.694993L5.29162 5.34687C4.68669 5.66753 4.31094 6.29213 4.31094 6.97691C4.31094 7.25815 4.37524 7.52874 4.49185 7.7728H3.42514C2.22994 7.7728 1.25756 8.74488 1.25756 9.93977V26.2539H0.454102C0.203316 26.2539 0 26.4572 0 26.708V27.7145C0 29.3384 1.32113 30.6596 2.94506 30.6596H28.0549C29.6788 30.6596 31 29.3384 31 27.7145V26.708C31 26.4571 30.7967 26.2538 30.5459 26.2538ZM19.4062 18.3757L19.9983 19.4013C20.1207 19.6132 20.0391 19.8004 19.9983 19.871C19.9576 19.9416 19.8363 20.1058 19.5915 20.1058H19.2209C18.9761 20.1058 18.8549 19.9416 18.8141 19.871C18.7733 19.8003 18.6917 19.6132 18.8141 19.4013L19.4062 18.3757ZM19.8603 11.7049L21.7394 10.7095V12.5128C21.7394 13.8079 21.0075 14.9689 19.8603 15.5203V11.7049ZM15.4999 13.6134C15.9901 13.6134 16.4803 13.4951 16.9272 13.2588L18.9521 12.1861V15.8716C16.4711 16.6935 13.726 16.6012 11.3043 15.5947C10.0628 15.0787 9.26064 13.869 9.26064 12.5128V10.7094L14.0731 13.2588C14.5198 13.4953 15.0098 13.6134 15.4999 13.6134ZM2.16576 9.93971C2.16576 9.2456 2.73072 8.68094 3.42514 8.68094H5.43148L7.7173 9.89188H3.8308C3.58002 9.89188 3.3767 10.0952 3.3767 10.346V24.589C3.3767 24.8398 3.58002 25.0431 3.8308 25.0431H6.22785C6.47864 25.0431 6.68195 24.8398 6.68195 24.589C6.68195 24.3382 6.47864 24.1349 6.22785 24.1349H4.2849V10.8001H8.35244V12.5128C8.35244 14.2371 9.37429 15.7759 10.9558 16.4333C12.3998 17.0334 13.9499 17.3335 15.5001 17.3335C16.6658 17.3335 17.8315 17.1637 18.9522 16.8243V17.3458L18.0277 18.9472C17.7786 19.3785 17.7786 19.8937 18.0277 20.3251C18.2767 20.7565 18.7228 21.014 19.221 21.014H19.5916C20.0898 21.014 20.5358 20.7565 20.7849 20.3251C21.034 19.8937 21.034 19.3785 20.7849 18.9472L19.8603 17.3458V16.507C19.9217 16.4827 19.9832 16.4587 20.0442 16.4333C21.6257 15.7759 22.6476 14.2371 22.6476 12.5128V10.8001H26.7151V24.1349H8.04426C7.79347 24.1349 7.59016 24.3382 7.59016 24.589C7.59016 24.8398 7.79347 25.0431 8.04426 25.0431H27.1692C27.42 25.0431 27.6233 24.8398 27.6233 24.589V10.346C27.6233 10.0952 27.42 9.89188 27.1692 9.89188H23.2826L25.5685 8.68094H27.5748C28.2692 8.68094 28.8342 9.2456 28.8342 9.93971V26.2538H2.16576V9.93971ZM18.3082 27.1623C18.1404 27.6506 17.6764 28.0025 17.1319 28.0025H13.8681C13.3236 28.0025 12.8597 27.6506 12.6918 27.1623H18.3082ZM30.0918 27.7144C30.0918 28.8375 29.178 29.7513 28.0549 29.7513H2.94506C1.82192 29.7513 0.908203 28.8375 0.908203 27.7144V27.162H1.707C1.70857 27.162 1.71009 27.1623 1.71166 27.1623H11.755C11.9443 28.1566 12.8195 28.9107 13.8681 28.9107H17.1319C18.1805 28.9107 19.0557 28.1565 19.245 27.1623H29.2883C29.2899 27.1623 29.2914 27.162 29.293 27.162H30.0918V27.7144Z" fill="white"></path><path d="M15.6373 22.4697C15.6373 22.2189 15.434 22.0156 15.1832 22.0156H6.09241C5.84162 22.0156 5.63831 22.2189 5.63831 22.4697C5.63831 22.7205 5.84162 22.9238 6.09241 22.9238H15.1833C15.434 22.9238 15.6373 22.7205 15.6373 22.4697Z" fill="white"></path><path d="M6.09241 21.0142H12.1707C12.4215 21.0142 12.6248 20.8108 12.6248 20.5601C12.6248 20.3093 12.4215 20.106 12.1707 20.106H6.09241C5.84162 20.106 5.63831 20.3093 5.63831 20.5601C5.63831 20.8108 5.84156 21.0142 6.09241 21.0142Z" fill="white"></path></g><defs><clipPath id="clip0_87_1147"><rect width="31" height="31" fill="white"></rect></clipPath></defs></svg>