<svg xmlns="http://www.w3.org/2000/svg" width="34" height="34" viewBox="0 0 34 34" fill="none"><path fill-rule="evenodd" clip-rule="evenodd" d="M10.5725 16.5255H6.02353C5.78039 16.5255 5.57647 16.3216 5.57647 16.0706V14.8706H0.901961V17.1294C2.26667 17.3255 3.34902 18.4078 3.55294 19.7726H13.051C13.2471 18.4078 14.3294 17.3255 15.702 17.1294V14.8706H11.0275V16.0706C11.0275 16.3216 10.8235 16.5255 10.5725 16.5255ZM32.6274 34H0.447059C0.196078 34 0 33.7961 0 33.5451V31.1216C0 30.8706 0.196078 30.6667 0.447059 30.6667H1.70196V25.8745C1.70196 25.6235 1.89804 25.4196 2.14902 25.4196H5.74902C6 25.4196 6.19608 25.6235 6.19608 25.8745V30.6667H7.99216V22.7451C7.99216 22.4941 8.19608 22.2902 8.44706 22.2902H12.0392C12.2902 22.2902 12.4941 22.4941 12.4941 22.7451V30.6667H14.2902V24.8941C14.2902 24.651 14.4863 24.4471 14.7373 24.4471H18.3373C18.5882 24.4471 18.7843 24.651 18.7843 24.8941V30.6667H20.5804V16.3373C20.5804 16.0863 20.7843 15.8824 21.0353 15.8824H24.6274C24.8784 15.8824 25.0824 16.0863 25.0824 16.3373V30.6667H26.8784V11.3333C26.8784 11.0902 27.0745 10.8863 27.3255 10.8863H30.9255C31.1765 10.8863 31.3725 11.0902 31.3725 11.3333V30.6667H32.6274C32.8784 30.6667 33.0745 30.8706 33.0745 31.1216V33.5451C33.0745 33.7961 32.8784 34 32.6274 34ZM2.60392 30.6667H5.29412V26.3216H2.60392V30.6667ZM8.89412 30.6667H11.5922V23.2H8.89412V30.6667ZM15.1922 30.6667H17.8824V25.349H15.1922V30.6667ZM21.4824 30.6667H24.1804V16.7843H21.4824V30.6667ZM27.7804 30.6667H30.4706V11.7882H27.7804V30.6667ZM0.901961 33.098H32.1725V31.5765H0.901961V33.098ZM24.0314 11.5529H22.3451C22.1333 11.5529 21.9451 11.4039 21.9059 11.2L21.5059 9.41177C21.2863 9.3098 21.0745 9.19216 20.8784 9.05098L19.1373 9.6C18.9333 9.66275 18.7137 9.57647 18.6118 9.39608L17.7647 7.92941C17.6549 7.74902 17.6941 7.51373 17.851 7.37255L19.2 6.13333V5.41961L17.851 4.18039C17.6941 4.03922 17.6549 3.80392 17.7647 3.62353L18.6118 2.15686C18.7137 1.97647 18.9333 1.8902 19.1373 1.95294L20.8784 2.50196C21.0745 2.36078 21.2863 2.24314 21.5059 2.14118L21.9059 0.352941C21.9451 0.14902 22.1333 0 22.3451 0H24.0314C24.2431 0 24.4314 0.14902 24.4784 0.352941L24.8706 2.14118C25.0902 2.24314 25.302 2.36078 25.498 2.50196L27.2392 1.95294C27.4431 1.8902 27.6627 1.97647 27.7647 2.15686L28.6118 3.62353C28.7216 3.80392 28.6824 4.03922 28.5255 4.18039L27.1765 5.41961V6.13333L28.5255 7.37255C28.6824 7.51373 28.7216 7.74902 28.6118 7.92941L27.7647 9.39608C27.6627 9.57647 27.4431 9.66275 27.2392 9.6L25.498 9.05098C25.302 9.19216 25.0902 9.3098 24.8706 9.41177L24.4784 11.2C24.4314 11.4039 24.2431 11.5529 24.0314 11.5529ZM22.7059 10.651H23.6706C24.2824 7.89804 23.8196 9.24706 25.1294 8.19608C25.2471 8.10196 25.4039 8.07059 25.5451 8.11765L27.1686 8.62745L27.6471 7.79608C25.5686 5.88235 26.5098 6.98039 26.2588 5.3098C26.2353 5.16078 26.2902 5.00392 26.4 4.90196L27.6471 3.75686L27.1686 2.92549C24.4706 3.77255 25.8745 3.4902 24.3137 2.88627C24.1725 2.83137 24.0706 2.70588 24.0392 2.56471L23.6706 0.901961H22.7059C22.0941 3.6549 22.5647 2.30588 21.2471 3.35686C21.1294 3.45098 20.9725 3.47451 20.8314 3.43529L19.2078 2.92549L18.7294 3.75686C20.8078 5.67059 19.8667 4.57255 20.1176 6.24314C20.1412 6.39216 20.0941 6.54118 19.9765 6.64314L18.7294 7.79608L19.2078 8.62745C21.9059 7.78039 20.502 8.06275 22.0627 8.66667C22.2039 8.72157 22.3059 8.84706 22.3373 8.98824L22.7059 10.651ZM23.1922 7.75686C22.0941 7.75686 21.2078 6.87059 21.2078 5.77255C21.2078 4.68235 22.0941 3.79608 23.1922 3.79608C24.2824 3.79608 25.1686 4.68235 25.1686 5.77255C25.1686 6.87059 24.2824 7.75686 23.1922 7.75686ZM23.1922 4.70588C21.7804 4.70588 21.7804 6.84706 23.1922 6.84706C24.6039 6.84706 24.6039 4.70588 23.1922 4.70588ZM0.901961 13.9608H5.57647V12.8549C5.57647 12.6039 5.78039 12.4078 6.02353 12.4078H10.5725C10.8235 12.4078 11.0275 12.6039 11.0275 12.8549V13.9608H15.702V11.702C14.3294 11.5059 13.2471 10.4235 13.051 9.05098H3.55294C3.34902 10.4235 2.26667 11.5059 0.901961 11.702V13.9608ZM16.6039 14.4V20.2275C16.6039 20.4784 16.4 20.6824 16.149 20.6824H13.451H0.447059C0.196078 20.6824 0 20.4784 0 20.2275V8.58824C0 8.35294 0.203922 8.14902 0.447059 8.14902H4.01569V5.24706C4.01569 4.99608 4.21176 4.79216 4.46274 4.79216H12.1333C12.3843 4.79216 12.5882 4.99608 12.5882 5.24706V8.14902H16.149C16.4078 8.14902 16.6039 8.36078 16.6039 8.60392V14.4ZM0.901961 19.7726H2.63529C2.4549 18.9098 1.76471 18.2275 0.901961 18.0471V19.7726ZM13.9686 19.7726H15.702V18.0471C14.8314 18.2275 14.149 18.9098 13.9686 19.7726ZM0.901961 9.05098V10.7843C1.76471 10.6039 2.4549 9.92157 2.63529 9.05098H0.901961ZM13.9686 9.05098C14.149 9.92157 14.8314 10.6039 15.702 10.7843V9.05098H13.9686ZM4.91765 8.14902H11.6863V5.69412H4.91765V8.14902ZM6.47843 15.6235H10.1176V13.3098H6.47843V15.6235Z" fill="white"></path></svg>