<svg xmlns="http://www.w3.org/2000/svg" width="28" height="34" viewBox="0 0 28 34" fill="none"><path d="M25.8114 17.8605C26.9904 17.8605 27.9497 16.9013 27.9497 15.7222V2.13828C27.9497 0.959238 26.9905 0 25.8114 0H2.13835C0.959305 0 6.63698e-05 0.959238 6.63698e-05 2.13828V11.7176C6.63698e-05 11.9928 0.223059 12.2157 0.498113 12.2157C0.773168 12.2157 0.99616 11.9928 0.99616 11.7176V10.6513C1.13243 10.6946 1.27739 10.7184 1.4278 10.7184C1.57821 10.7184 1.72318 10.6947 1.85944 10.6513V15.2374C1.85944 15.6585 2.20203 16.0011 2.62311 16.0011H7.62689L7.02213 16.8644H2.13835C1.50855 16.8644 0.996094 16.352 0.996094 15.7222V14.0419C0.996094 13.7667 0.773102 13.5438 0.498047 13.5438C0.222992 13.5438 0 13.7667 0 14.0419V15.7222C0 16.9013 0.959238 17.8605 2.13835 17.8605H6.3244L5.55674 18.9564C5.13513 18.7211 4.65003 18.5863 4.13386 18.5863C2.51866 18.5863 1.20461 19.9004 1.20461 21.5155C1.20461 23.1306 2.51866 24.4447 4.13386 24.4447C5.74905 24.4447 7.0631 23.1306 7.0631 21.5155C7.0631 20.7759 6.78705 20.1 6.3333 19.584L7.54056 17.8604H13.4768V18.6296C12.0982 18.8669 11.0457 20.0703 11.0457 21.5156C11.0457 22.5437 11.5903 23.4947 12.4568 24.0209V26.8473H11.7507C11.1097 26.8473 10.5882 27.3688 10.5882 28.0098V28.8682C10.5882 30.0363 11.3294 31.066 12.4004 31.4552V33.3691C12.4004 33.717 12.6835 34 13.0313 34H17.4327C17.7805 34 18.0636 33.717 18.0636 33.3691V31.5456C19.4167 31.2401 20.4195 30.0251 20.4195 28.598C20.4195 26.9316 19.0637 25.5758 17.3973 25.5758H15.4928V24.0209C16.3594 23.4947 16.904 22.5437 16.904 21.5156C16.904 20.0702 15.8515 18.8668 14.4728 18.6296V17.8604H21.4687L22.7597 19.3898C22.1956 19.924 21.8425 20.6791 21.8425 21.5155C21.8425 23.1306 23.1566 24.4447 24.7718 24.4447C26.387 24.4447 27.701 23.1306 27.701 21.5155C27.701 19.9004 26.387 18.5863 24.7718 18.5863C24.353 18.5863 23.9549 18.6753 23.5943 18.8343L22.7722 17.8604H25.8114V17.8605ZM4.13386 23.4486C3.0679 23.4486 2.2007 22.5814 2.2007 21.5156C2.2007 20.4497 3.0679 19.5825 4.13386 19.5825C5.19981 19.5825 6.06701 20.4497 6.06701 21.5156C6.06701 22.5814 5.19981 23.4486 4.13386 23.4486ZM17.3973 26.572C18.5145 26.572 19.4234 27.4809 19.4234 28.5981C19.4234 29.6615 18.593 30.5492 17.5328 30.6191C17.271 30.6364 17.0675 30.8537 17.0675 31.116V33.0039H13.3965V31.0787C13.3965 30.8411 13.2287 30.6365 12.9956 30.5902C12.1778 30.4276 11.5843 29.7034 11.5843 28.8682V28.0098C11.5843 27.9181 11.6589 27.8434 11.7507 27.8434H12.4568V28.685C12.4568 28.9601 12.6798 29.183 12.9549 29.183C13.2299 29.183 13.4529 28.9601 13.4529 28.685V22.0325C13.4529 21.8884 13.5104 21.7543 13.6147 21.6547C13.7189 21.5553 13.8564 21.5047 14.0007 21.5111C14.2742 21.524 14.4968 21.7708 14.4968 22.0613V26.0739C14.4968 26.349 14.7197 26.5719 14.9948 26.5719H17.3973V26.572ZM15.9079 21.5156C15.9079 21.9562 15.7556 22.3747 15.4929 22.7095V22.0613C15.4929 21.2331 14.8581 20.5545 14.0476 20.5162C13.6278 20.4961 13.2303 20.6449 12.9272 20.934C12.6283 21.2192 12.4569 21.6195 12.4569 22.0325V22.7095C12.1942 22.3746 12.0418 21.9562 12.0418 21.5156C12.0418 20.4496 12.909 19.5825 13.9749 19.5825C15.0408 19.5825 15.9079 20.4497 15.9079 21.5156ZM26.7051 21.5156C26.7051 22.5815 25.8379 23.4486 24.7719 23.4486C23.706 23.4486 22.8388 22.5814 22.8388 21.5156C22.8388 20.4497 23.706 19.5825 24.7719 19.5825C25.8379 19.5825 26.7051 20.4496 26.7051 21.5156ZM1.4278 9.72227C1.1898 9.72227 0.99616 9.52863 0.99616 9.29063V8.56979C0.99616 8.33179 1.1898 8.13822 1.4278 8.13822C1.6658 8.13822 1.85944 8.33179 1.85944 8.56979V9.29063C1.85944 9.52863 1.6658 9.72227 1.4278 9.72227ZM2.85554 15.005V2.85547H25.0943V4.60488C25.0943 4.88 25.3173 5.10292 25.5923 5.10292C25.8674 5.10292 26.0904 4.88 26.0904 4.60488V2.62305C26.0904 2.20196 25.7478 1.85938 25.3267 1.85938H2.62311C2.20203 1.85938 1.85944 2.20196 1.85944 2.62305V7.2092C1.72318 7.1659 1.57821 7.14213 1.4278 7.14213C1.27739 7.14213 1.13243 7.16583 0.99616 7.2092V2.13828C0.99616 1.50848 1.50855 0.996094 2.13841 0.996094H25.8114C26.4412 0.996094 26.9536 1.50848 26.9536 2.13828V15.7222C26.9536 16.352 26.4412 16.8644 25.8114 16.8644H21.9315L21.2027 16.0011H25.3266C25.7477 16.0011 26.0903 15.6585 26.0903 15.2374V6.92909C26.0903 6.65397 25.8673 6.43105 25.5922 6.43105C25.3172 6.43105 25.0942 6.65397 25.0942 6.92909V15.005H20.3618L18.5902 12.9063C18.4128 12.6961 18.0986 12.6696 17.8883 12.8469C17.6781 13.0243 17.6516 13.3386 17.829 13.5487L19.0583 15.005H14.4729V13.2275C14.4729 12.9523 14.2499 12.7294 13.9749 12.7294C13.6998 12.7294 13.4768 12.9523 13.4768 13.2275V15.005H9.54079L10.5857 13.5132C10.7435 13.2879 10.6887 12.9774 10.4635 12.8196C10.2382 12.6617 9.92767 12.7165 9.76982 12.9418L8.32462 15.005H2.85554ZM8.23829 16.8644L8.84305 16.0011H13.4768V16.8644H8.23829ZM14.4729 16.8644V16.0011H19.8991L20.6279 16.8644H14.4729Z" fill="white"></path><path d="M10.1704 12.1046C10.3566 12.1817 10.5707 12.1392 10.7131 11.9967C11.5153 11.1945 12.8205 11.1945 13.6227 11.9967C13.7077 12.0817 13.8193 12.1297 13.9267 12.1402C13.9283 12.1403 13.9298 12.1402 13.9313 12.1404C13.9781 12.1445 14.0325 12.1407 14.0713 12.1331C14.0727 12.1328 14.0741 12.1323 14.0755 12.132C14.1714 12.1121 14.2653 12.0584 14.327 11.9966C15.1291 11.1944 16.4343 11.1944 17.2365 11.9966C17.3318 12.0919 17.4591 12.1424 17.5888 12.1424C17.6529 12.1424 17.7177 12.13 17.7793 12.1045C17.9654 12.0275 18.0867 11.8458 18.0867 11.6444V6.96413C18.0867 6.83205 18.0343 6.70534 17.9409 6.61191C16.8616 5.53287 15.1689 5.43207 13.9749 6.30949C12.7809 5.43207 11.0881 5.53287 10.0088 6.61204C9.91539 6.70541 9.86293 6.83211 9.86293 6.96426V11.6445C9.86293 11.8459 9.98425 12.0275 10.1704 12.1046ZM17.0907 7.18373V10.6926C16.6778 10.4971 16.2299 10.3995 15.7819 10.3995C15.3338 10.3995 14.8859 10.4971 14.473 10.6926V7.18373C15.2301 6.55845 16.3335 6.55845 17.0907 7.18373ZM10.859 7.18373C11.6163 6.55845 12.7196 6.55845 13.4768 7.18373V10.6926C13.0639 10.4971 12.616 10.3995 12.168 10.3995C11.7199 10.3995 11.272 10.4971 10.8591 10.6926V7.18373H10.859Z" fill="white"></path></svg>