<svg xmlns="http://www.w3.org/2000/svg" width="50" height="50" viewBox="0 0 50 50" fill="none"><rect width="50" height="50" rx="6" fill="#553CDF"></rect><path d="M39.9666 13.9082H11.0334C9.91214 13.9082 9 14.8204 9 15.9416V35.0582C9 36.1795 9.91214 37.0916 11.0334 37.0916H30.15C30.4169 37.0916 30.6334 36.8752 30.6334 36.6082C30.6334 36.3412 30.4169 36.1248 30.15 36.1248H11.0334C10.4452 36.1248 9.9668 35.6464 9.9668 35.0582V15.9416C9.9668 15.3535 10.4452 14.8751 11.0334 14.8751H39.9666C40.5547 14.8751 41.0331 15.3535 41.0331 15.9416V35.0582C41.0331 35.6464 40.5547 36.1248 39.9666 36.1248H36.3499C36.0829 36.1248 35.8665 36.3412 35.8665 36.6082C35.8665 36.8752 36.0829 37.0916 36.3499 37.0916H39.9666C41.0878 37.0916 41.9999 36.1795 41.9999 35.0582V15.9416C42 14.8204 41.0879 13.9082 39.9666 13.9082Z" fill="white"></path><path d="M33.7334 33.6209V27.8723L36.4862 26.6754C36.8572 26.5141 37.0876 26.1627 37.0876 25.7583C37.0876 25.3538 36.8572 25.0024 36.4863 24.8411L26.5168 20.5066C25.8707 20.2257 25.1295 20.2257 24.4832 20.5066L14.5138 24.8411C14.1428 25.0023 13.9124 25.3537 13.9124 25.7582C13.9124 26.1626 14.1428 26.5141 14.5138 26.6753L17.5573 27.9986C17.802 28.1051 18.0869 27.9928 18.1933 27.748C18.2998 27.5031 18.1876 27.2184 17.9427 27.112L14.8992 25.7887C14.8894 25.7844 14.8792 25.78 14.8792 25.7581C14.8792 25.7363 14.8894 25.7319 14.8992 25.7276L24.8687 21.3931C25.2699 21.2187 25.73 21.2186 26.1313 21.3931L36.1008 25.7276C36.1106 25.7319 36.1208 25.7363 36.1208 25.7581C36.1208 25.78 36.1106 25.7844 36.1008 25.7887L31.6667 27.7165V26.2748C31.6667 25.6921 31.0502 25.3312 29.6052 25.0685C28.5042 24.8683 27.0462 24.7581 25.5001 24.7581C23.9539 24.7581 22.496 24.8683 21.3949 25.0685C19.9499 25.3312 19.3334 25.692 19.3334 26.2748V30.4082C19.3334 30.9596 19.782 31.4082 20.3334 31.4082H30.6667C31.2181 31.4082 31.6667 30.9596 31.6667 30.4082V28.7707L32.7666 28.2925V33.6208C32.1666 33.8231 31.7333 34.3908 31.7333 35.0581V36.6081C31.7333 36.8751 31.9497 37.0915 32.2167 37.0915H34.2833C34.5503 37.0915 34.7667 36.8751 34.7667 36.6081V35.0581C34.7667 34.3908 34.3333 33.8232 33.7334 33.6209ZM25.5 25.7249C28.5581 25.7249 30.3213 26.138 30.6999 26.3907V28.3748H20.3001V26.3907C20.6787 26.138 22.4419 25.7249 25.5 25.7249ZM30.6666 30.4414H20.3334C20.315 30.4414 20.3001 30.4265 20.3001 30.4082V29.3416H30.6999V30.4082C30.6999 30.4265 30.685 30.4414 30.6666 30.4414ZM33.7999 36.1248H32.7V35.0582C32.7 34.7549 32.9467 34.5083 33.25 34.5083C33.5532 34.5083 33.7999 34.755 33.7999 35.0582V36.1248Z" fill="white"></path><path d="M15.6501 18.5248C15.6501 17.4036 14.7379 16.4915 13.6167 16.4915C12.4955 16.4915 11.5833 17.4036 11.5833 18.5248C11.5833 19.646 12.4955 20.5582 13.6167 20.5582C14.7379 20.5582 15.6501 19.646 15.6501 18.5248ZM13.6167 19.5915C13.0286 19.5915 12.5501 19.113 12.5501 18.5249C12.5501 17.9368 13.0286 17.4583 13.6167 17.4583C14.2048 17.4583 14.6833 17.9368 14.6833 18.5249C14.6833 19.113 14.2048 19.5915 13.6167 19.5915Z" fill="white"></path><path d="M17.2334 17.9751H23.4334C23.7003 17.9751 23.9168 17.7587 23.9168 17.4917C23.9168 17.2247 23.7003 17.0083 23.4334 17.0083H17.2334C16.9664 17.0083 16.75 17.2247 16.75 17.4917C16.75 17.7587 16.9664 17.9751 17.2334 17.9751Z" fill="white"></path><path d="M17.2334 20.0417H20.3334C20.6003 20.0417 20.8168 19.8253 20.8168 19.5583C20.8168 19.2914 20.6003 19.075 20.3334 19.075H17.2334C16.9664 19.075 16.75 19.2914 16.75 19.5583C16.75 19.8253 16.9664 20.0417 17.2334 20.0417Z" fill="white"></path></svg>