<svg xmlns="http://www.w3.org/2000/svg" width="50" height="50" viewBox="0 0 50 50" fill="none"><rect width="50" height="50" rx="6" fill="#553CDF"></rect><path d="M42.8732 20.2062C42.9586 19.9378 42.7719 19.6903 42.5202 19.6661L39.3172 19.352C38.7587 18.3293 38.2023 17.2997 37.6433 16.279C37.4945 16.1972 37.3342 16.1399 37.1704 16.0954C36.9561 15.9121 36.6327 15.9987 36.5236 16.2477L35.1021 19.5005L31.6169 20.1738C31.2783 20.2387 31.161 20.6658 31.419 20.8948L34.0732 23.2518L33.6367 26.7745C33.6058 27.0235 33.8002 27.2425 34.0504 27.2425C34.2574 27.2425 34.164 27.2188 37.3233 25.3894L40.5384 26.8934C40.8538 27.0395 41.1963 26.7615 41.1224 26.4259L40.4562 23.395C41.2827 22.466 42.1118 21.5221 43 20.6546C42.9577 20.5052 42.9154 20.3556 42.8732 20.2062ZM37.4781 24.5407C37.354 24.4832 37.2088 24.4886 37.0904 24.5592L34.5681 26.0382L34.9278 23.1367C34.9449 23.0009 34.8936 22.8652 34.791 22.774L32.6045 20.8324L35.4754 20.2775C35.6103 20.2514 35.7235 20.1607 35.7784 20.0353L36.9492 17.3559L38.3639 19.9153C38.4302 20.0353 38.5515 20.1151 38.6881 20.1282L41.5977 20.4138L39.6013 22.5497C39.5076 22.6496 39.4691 22.7897 39.4987 22.9238L40.1266 25.7798L37.4781 24.5407Z" fill="white"></path><path d="M16.9277 40.1022C17.0819 40.3927 17.2774 40.6977 17.4414 40.9932L32.3303 41.0583C32.5069 40.7785 32.696 40.4427 32.8806 40.1268C33.1736 40.0569 33.2596 39.7815 33.1725 39.573C32.8662 38.8379 32.083 37.3806 31.4681 36.6677C30.5248 35.5742 29.6384 34.9129 28.5042 34.4562C28.3415 34.3908 28.1058 34.4555 28.0017 34.611C27.4041 35.5052 26.249 36.1296 25.1927 36.1296C24.1152 36.1296 23.0809 35.578 22.4258 34.6533C22.3301 34.5184 22.1021 34.4435 21.9393 34.504C21.2566 34.7597 20.6599 35.0486 20.2136 35.3391C18.7229 36.3077 17.5813 37.9822 16.661 39.4921C16.5277 39.7116 16.6083 40.0286 16.9277 40.1022ZM20.6683 36.0384C21.0038 35.8201 21.4469 35.6008 21.9538 35.3957C22.7679 36.3797 23.953 36.9636 25.1927 36.9636C26.3961 36.9636 27.6946 36.3128 28.4785 35.3544C30.2248 36.1523 31.2767 37.598 32.1346 39.3151L17.7678 39.2934C18.5635 38.05 19.5145 36.7882 20.6683 36.0384Z" fill="white"></path><path d="M21.5146 30.1371C21.6293 30.9233 21.871 31.7758 22.3856 32.5156C24.0916 34.9676 27.7227 34.7264 28.5068 30.7804C28.5475 30.6221 28.5833 30.4665 28.6148 30.3118C29.7375 30.0889 29.81 28.5581 29.1848 28.0792C29.9351 25.1882 27.5221 22.7128 24.9419 23.8019C25.0457 23.6042 24.9781 23.3584 24.7827 23.2469C24.5827 23.1323 24.3283 23.2018 24.2134 23.4011C24.148 23.5154 24.0979 23.6362 24.0549 23.7592C23.7139 23.5852 23.3346 23.9165 23.4906 24.286C22.1529 24.3829 20.9831 25.6784 21.2484 27.8541C20.2901 28.1658 20.3454 29.6425 21.5146 30.1371ZM23.0703 32.0389C22.59 31.3489 22.3314 30.445 22.2648 29.2236C23.6459 29.2631 25.5892 28.3847 26.6049 27.1817C26.8222 27.988 27.1863 28.7408 27.8636 29.2247C27.8077 30.0278 27.7193 30.8652 27.3992 31.6149C27.0574 32.4163 26.4548 33.0108 25.7875 33.2046C24.7477 33.5082 23.6325 32.8474 23.0703 32.0389ZM22.056 26.9096C22.1933 25.5086 23.252 24.8567 24.0492 25.1885C24.2137 25.2585 24.4043 25.214 24.5227 25.0804C25.0594 24.474 26.1135 24.2068 26.8704 24.4854C28.2952 25.0092 28.9127 26.8389 28.1832 28.4124C27.58 27.8615 27.3537 26.9177 27.2081 25.9589C27.1405 25.5174 26.5206 25.4807 26.3956 25.9036C26.0076 27.2225 23.5714 28.4888 22.1921 28.3934C22.06 27.8085 22.0141 27.3375 22.056 26.9096Z" fill="white"></path><path d="M31.0343 12.4352L27.6377 12.1015C26.7831 10.9091 25.9963 9.64793 25.3553 8.33042C25.0975 8.23035 24.8271 8.16872 24.5536 8.12858C24.3436 7.91138 23.9894 7.98095 23.8719 8.2501L22.135 12.2245L17.8761 13.0471C17.5375 13.112 17.4202 13.5391 17.6782 13.7681L20.9215 16.6485L20.3881 20.9536C20.3455 21.2964 20.7165 21.5393 21.0127 21.364L24.7545 19.1694L28.6833 21.0073C28.9979 21.1534 29.3413 20.8761 29.2672 20.5398L28.4529 16.8338C29.4672 15.7625 30.4847 14.6536 31.4984 13.5894C31.4531 13.4073 31.4077 13.2251 31.3624 13.043C31.5006 12.7794 31.3265 12.4633 31.0343 12.4352ZM24.9092 18.3208C24.7852 18.2632 24.6399 18.2687 24.5216 18.3392L21.3195 20.2173L21.7761 16.5334C21.7932 16.3976 21.7419 16.2619 21.6393 16.1707L18.8637 13.7057L22.5083 13.002C22.6432 12.976 22.7564 12.8853 22.8115 12.7593L24.2976 9.35772L26.0934 12.6068C26.1597 12.7267 26.281 12.8066 26.4176 12.8196L30.1121 13.1823L27.5773 15.8943C27.4836 15.9942 27.4451 16.1343 27.4747 16.2684L28.2715 19.8937L24.9092 18.3208Z" fill="white"></path><path d="M9.35773 26.7747C9.31517 27.1175 9.68612 27.3604 9.9824 27.1851L13.0444 25.3896L16.2595 26.8936C16.5749 27.0397 16.9173 26.7617 16.8434 26.4261L16.2852 23.8862C17.074 22.813 17.9277 21.7021 18.8959 20.8029C18.7641 20.6238 18.6679 20.4223 18.5918 20.2134C18.6833 19.9431 18.4954 19.6908 18.2412 19.6663L15.349 19.3827C14.8113 18.3881 14.3001 17.4126 13.7569 16.4142C13.469 16.2485 13.1559 16.1282 12.8328 16.0511C12.6255 15.9307 12.3453 16.0181 12.2446 16.2479L10.8232 19.5007L7.33795 20.174C6.99933 20.2389 6.88206 20.666 7.14004 20.895L9.79427 23.252L9.35773 26.7747ZM8.32558 20.8326L11.1964 20.2777C11.3314 20.2516 11.4446 20.1609 11.4994 20.0355L12.6703 17.3561L14.0849 19.9155C14.1512 20.0355 14.2725 20.1153 14.4091 20.1284L17.3188 20.414L15.3223 22.5499C15.2287 22.6498 15.1901 22.7899 15.2197 22.924L15.8476 25.78L13.1991 24.5409C13.0751 24.4834 12.9298 24.4888 12.8115 24.5594L10.2892 26.0384L10.6489 23.1369C10.666 23.0011 10.6147 22.8654 10.512 22.7742L8.32558 20.8326Z" fill="white"></path></svg>