<svg xmlns="http://www.w3.org/2000/svg" width="60" height="60" viewBox="0 0 60 60" fill="none"><path fill-rule="evenodd" clip-rule="evenodd" d="M11.4563 28.125H22.5C23.4946 28.125 24.4484 28.5201 25.1516 29.2234C25.8549 29.9266 26.25 30.8804 26.25 31.875V43.125C26.25 44.1196 25.8549 45.0734 25.1516 45.7766C24.4484 46.4799 23.4946 46.875 22.5 46.875H11.25C10.2554 46.875 9.30161 46.4799 8.59835 45.7766C7.89509 45.0734 7.5 44.1196 7.5 43.125V30.6562C7.50114 27.2613 8.34029 23.9192 9.943 20.9264C11.5457 17.9335 13.8624 15.3826 16.6875 13.5L20.0437 11.25L22.1063 14.3625L18.75 16.6125C16.8006 17.9188 15.1451 19.6174 13.8892 21.5997C12.6334 23.582 11.8047 25.8044 11.4563 28.125ZM37.7063 28.125H48.75C49.7446 28.125 50.6984 28.5201 51.4016 29.2234C52.1049 29.9266 52.5 30.8804 52.5 31.875V43.125C52.5 44.1196 52.1049 45.0734 51.4016 45.7766C50.6984 46.4799 49.7446 46.875 48.75 46.875H37.5C36.5054 46.875 35.5516 46.4799 34.8484 45.7766C34.1451 45.0734 33.75 44.1196 33.75 43.125V30.6562C33.7511 27.2613 34.5903 23.9192 36.193 20.9264C37.7957 17.9335 40.1124 15.3826 42.9375 13.5L46.3125 11.25L48.3563 14.3625L45 16.6125C43.0506 17.9188 41.3951 19.6174 40.1392 21.5997C38.8834 23.582 38.0547 25.8044 37.7063 28.125Z" fill="white"></path></svg>